<svg width="232" height="6" viewBox="0 0 232 6" fill="none" xmlns="http://www.w3.org/2000/svg">
<path d="M9.85484 4.58643C10.2464 4.30539 11.1275 4.37565 11.878 4.09462C9.72432 3.77143 7.7664 4.3616 5.93901 4.09462C4.01373 3.81358 1.89265 4.12272 -2.09571e-07 3.60281C1.46843 3.39203 2.3495 2.7597 3.88321 2.57702C5.31902 2.4084 6.91797 2.67539 8.32114 2.31004C6.46112 2.26788 4.6011 2.42245 2.74109 2.18357C8.15799 1.86038 13.5423 1.50909 18.9592 1.214C20.9497 1.10158 22.9076 0.862703 24.8982 0.76434C33.252 0.328734 41.6057 -0.0506654 50.0574 0.00554102C54.7564 0.0476959 59.4227 0.0898512 64.1217 0.061747C69.3755 0.0336432 74.5966 0.24442 79.8503 0.314678C83.0156 0.356833 86.1809 0.328729 89.3462 0.356833C98.8421 0.441142 108.338 0.553556 117.834 0.637866C125.568 0.708124 133.269 0.764331 141.003 0.806486C152.815 0.876744 164.628 0.904846 176.441 0.989156C182.837 1.03131 189.265 1.05941 195.628 1.21398C203.786 1.41071 211.977 1.41071 220.07 2.01493C222.223 2.1695 224.279 2.39433 226.433 2.49269C228.228 2.59106 229.892 3.04071 231.328 3.54658C232.372 3.91192 232.176 4.33348 230.904 4.51615C229.272 4.74098 227.542 4.9096 225.78 4.86745C225.944 5.30305 227.086 4.96581 227.379 5.2609C225.16 5.58409 222.843 5.54193 220.527 5.51383C218.699 5.48573 216.839 5.55599 215.012 5.52788C208.322 5.44357 201.763 5.93539 195.139 5.99159C190.832 6.03375 186.492 5.90728 182.184 5.83703C176.767 5.75271 171.383 5.75272 165.966 5.72461C153.174 5.68246 140.35 5.66841 127.558 5.6122C115.484 5.57005 103.411 5.49979 91.3694 5.40143C86.3441 5.35927 81.3514 5.2047 76.3261 5.16255C71.1702 5.12039 65.9818 5.2047 60.8259 5.1766C52.5048 5.12039 44.151 5.28902 35.8299 4.90962C34.2309 4.83936 32.5993 4.96583 31.0003 4.97988C28.7487 5.00798 26.4645 5.09229 24.2455 4.82531C23.7234 4.75505 23.2013 4.69884 22.6792 4.741C20.2318 4.93772 17.8823 4.68479 15.5002 4.57238C14.0644 4.50212 12.5633 4.60048 11.1275 4.64264C10.6707 4.65669 10.2138 4.7129 9.78958 4.57238L9.85484 4.58643Z" fill="#FF6400"/>
</svg>
